#Comment line ignore any data following # character 
#Hierarchical Translation and Rotation (.htr) file 
[Header]	
#Header keywords are followed by a single value 
FileType HTR		#Single word string
DataType HTRS		#Translation followed by rotation and scale data
FileVersion 1		#integer
NumSegments 84		#integer
NumFrames 2		#integer
DataFrameRate 30		#integer, data frame rate in this file
EulerRotationOrder ZYX
CalibrationUnits mm
RotationUnits Degrees
GlobalAxisofGravity Y
BoneLengthAxis Y
ScaleFactor 1.00
[SegmentNames&Hierarchy]
#CHILD	PARENT
MASTER GLOBAL
root MASTER
chest root
L_mid_tent01 root
R_mid_tent01 root
spine01 root
Bip01_Neck chest
L_humerus chest
R_humerus chest
weapon_bone chest
Bip01_Head Bip01_Neck
eye_left_bone Bip01_Head
eye_right_bone Bip01_Head
L_forearm L_humerus
L_front_hand L_forearm
L_weapon_bone L_forearm
L_front_hand01_01 L_front_hand
L_front_hand02_01 L_front_hand
L_front_hand03_01 L_front_hand
L_front_hand01_02 L_front_hand01_01
L_front_hand02_02 L_front_hand02_01
L_front_hand03_02 L_front_hand03_01
R_forearm R_humerus
R_front_hand R_forearm
R_weapon_bone R_forearm
R_front_hand01_01 R_front_hand
R_front_hand02_01 R_front_hand
R_front_hand03_01 R_front_hand
R_front_hand01_02 R_front_hand01_01
R_front_hand02_02 R_front_hand02_01
R_front_hand03_02 R_front_hand03_01
null_rope01_connect L_mid_tent01
Rope1_Seg01 null_rope01_connect
Rope1_Seg02 Rope1_Seg01
Rope1_Seg03 Rope1_Seg02
Rope1_Seg04 Rope1_Seg03
Rope1_Seg05 Rope1_Seg04
Rope1_Seg06 Rope1_Seg05
Rope1_Seg07 Rope1_Seg06
Rope1_Seg09 Rope1_Seg07
L_mid_hand01 Rope1_Seg09
L_mid_hand02 Rope1_Seg09
L_mid_hand03 Rope1_Seg09
null_rope02_connect R_mid_tent01
Rope2_Seg01 null_rope02_connect
Rope2_Seg02 Rope2_Seg01
Rope2_Seg03 Rope2_Seg02
Rope2_Seg04 Rope2_Seg03
Rope2_Seg05 Rope2_Seg04
Rope2_Seg06 Rope2_Seg05
Rope2_Seg07 Rope2_Seg06
Rope2_Seg09 Rope2_Seg07
R_mid_hand01 Rope2_Seg09
R_mid_hand02 Rope2_Seg09
R_mid_hand03 Rope2_Seg09
spine02 spine01
spine03 spine02
pelvis spine03
null_rope03_connect pelvis
null_rope04_connect pelvis
Rope3_Seg01 null_rope03_connect
Rope3_Seg02 Rope3_Seg01
Rope3_Seg03 Rope3_Seg02
Rope3_Seg04 Rope3_Seg03
Rope3_Seg05 Rope3_Seg04
Rope3_Seg06 Rope3_Seg05
Rope3_Seg07 Rope3_Seg06
Rope3_Seg08 Rope3_Seg07
Rope3_Seg09 Rope3_Seg08
R_rear_hand01 Rope3_Seg09
R_rear_hand02 Rope3_Seg09
R_rear_hand03 Rope3_Seg09
Rope4_Seg01 null_rope04_connect
Rope4_Seg02 Rope4_Seg01
Rope4_Seg03 Rope4_Seg02
Rope4_Seg04 Rope4_Seg03
Rope4_Seg05 Rope4_Seg04
Rope4_Seg06 Rope4_Seg05
Rope4_Seg07 Rope4_Seg06
Rope4_Seg08 Rope4_Seg07
Rope4_Seg09 Rope4_Seg08
L_rear_hand01 Rope4_Seg09
L_rear_hand02 Rope4_Seg09
L_rear_hand03 Rope4_Seg09
[BasePosition]
#SegmentName Tx, Ty, Tz, Rx, Ry, Rz, BoneLength
MASTER 0.000000 0.000000 0.000000 -90.000000 0.000000 0.000000 10.000000 
root 0.000000 0.000000 0.000000 0.000000 0.000000 0.000000 10.000000 
chest 0.000000 0.000000 0.000000 0.000000 0.000000 0.000000 10.000000 
L_mid_tent01 0.000000 0.000000 0.000000 0.000000 0.000000 0.000000 10.000000 
R_mid_tent01 0.000000 0.000000 0.000000 0.000000 0.000000 0.000000 10.000000 
spine01 0.000000 0.000000 0.000000 0.000000 0.000000 0.000000 10.000000 
Bip01_Neck 0.000000 0.000000 0.000000 0.000000 0.000000 0.000000 10.000000 
L_humerus 0.000000 0.000000 0.000000 0.000000 0.000000 0.000000 10.000000 
R_humerus 0.000000 0.000000 0.000000 0.000000 0.000000 0.000000 10.000000 
weapon_bone 0.000000 0.000000 0.000000 0.000000 0.000000 0.000000 10.000000 
Bip01_Head 0.000000 0.000000 0.000000 0.000000 0.000000 0.000000 10.000000 
eye_left_bone 0.000000 0.000000 0.000000 0.000000 0.000000 0.000000 10.000000 
eye_right_bone 0.000000 0.000000 0.000000 0.000000 0.000000 0.000000 10.000000 
L_forearm 0.000000 0.000000 0.000000 0.000000 0.000000 0.000000 10.000000 
L_front_hand 0.000000 0.000000 0.000000 0.000000 0.000000 0.000000 10.000000 
L_weapon_bone 0.000000 0.000000 0.000000 0.000000 0.000000 0.000000 10.000000 
L_front_hand01_01 0.000000 0.000000 0.000000 0.000000 0.000000 0.000000 10.000000 
L_front_hand02_01 0.000000 0.000000 0.000000 0.000000 0.000000 0.000000 10.000000 
L_front_hand03_01 0.000000 0.000000 0.000000 0.000000 0.000000 0.000000 10.000000 
L_front_hand01_02 0.000000 0.000000 0.000000 0.000000 0.000000 0.000000 10.000000 
L_front_hand02_02 0.000000 0.000000 0.000000 0.000000 0.000000 0.000000 10.000000 
L_front_hand03_02 0.000000 0.000000 0.000000 0.000000 0.000000 0.000000 10.000000 
R_forearm 0.000000 0.000000 0.000000 0.000000 0.000000 0.000000 10.000000 
R_front_hand 0.000000 0.000000 0.000000 0.000000 0.000000 0.000000 10.000000 
R_weapon_bone 0.000000 0.000000 0.000000 0.000000 0.000000 0.000000 10.000000 
R_front_hand01_01 0.000000 0.000000 0.000000 0.000000 0.000000 0.000000 10.000000 
R_front_hand02_01 0.000000 0.000000 0.000000 0.000000 0.000000 0.000000 10.000000 
R_front_hand03_01 0.000000 0.000000 0.000000 0.000000 0.000000 0.000000 10.000000 
R_front_hand01_02 0.000000 0.000000 0.000000 0.000000 0.000000 0.000000 10.000000 
R_front_hand02_02 0.000000 0.000000 0.000000 0.000000 0.000000 0.000000 10.000000 
R_front_hand03_02 0.000000 0.000000 0.000000 0.000000 0.000000 0.000000 10.000000 
null_rope01_connect 0.000000 0.000000 0.000000 0.000000 0.000000 0.000000 10.000000 
Rope1_Seg01 0.000000 0.000000 0.000000 0.000000 0.000000 0.000000 10.000000 
Rope1_Seg02 0.000000 0.000000 0.000000 0.000000 0.000000 0.000000 10.000000 
Rope1_Seg03 0.000000 0.000000 0.000000 0.000000 0.000000 0.000000 10.000000 
Rope1_Seg04 0.000000 0.000000 0.000000 0.000000 0.000000 0.000000 10.000000 
Rope1_Seg05 0.000000 0.000000 0.000000 0.000000 0.000000 0.000000 10.000000 
Rope1_Seg06 0.000000 0.000000 0.000000 0.000000 0.000000 0.000000 10.000000 
Rope1_Seg07 0.000000 0.000000 0.000000 0.000000 0.000000 0.000000 10.000000 
Rope1_Seg09 0.000000 0.000000 0.000000 0.000000 0.000000 0.000000 10.000000 
L_mid_hand01 0.000000 0.000000 0.000000 0.000000 0.000000 0.000000 10.000000 
L_mid_hand02 0.000000 0.000000 0.000000 0.000000 0.000000 0.000000 10.000000 
L_mid_hand03 0.000000 0.000000 0.000000 0.000000 0.000000 0.000000 10.000000 
null_rope02_connect 0.000000 0.000000 0.000000 0.000000 0.000000 0.000000 10.000000 
Rope2_Seg01 0.000000 0.000000 0.000000 0.000000 0.000000 0.000000 10.000000 
Rope2_Seg02 0.000000 0.000000 0.000000 0.000000 0.000000 0.000000 10.000000 
Rope2_Seg03 0.000000 0.000000 0.000000 0.000000 0.000000 0.000000 10.000000 
Rope2_Seg04 0.000000 0.000000 0.000000 0.000000 0.000000 0.000000 10.000000 
Rope2_Seg05 0.000000 0.000000 0.000000 0.000000 0.000000 0.000000 10.000000 
Rope2_Seg06 0.000000 0.000000 0.000000 0.000000 0.000000 0.000000 10.000000 
Rope2_Seg07 0.000000 0.000000 0.000000 0.000000 0.000000 0.000000 10.000000 
Rope2_Seg09 0.000000 0.000000 0.000000 0.000000 0.000000 0.000000 10.000000 
R_mid_hand01 0.000000 0.000000 0.000000 0.000000 0.000000 0.000000 10.000000 
R_mid_hand02 0.000000 0.000000 0.000000 0.000000 0.000000 0.000000 10.000000 
R_mid_hand03 0.000000 0.000000 0.000000 0.000000 0.000000 0.000000 10.000000 
spine02 0.000000 0.000000 0.000000 0.000000 0.000000 0.000000 10.000000 
spine03 0.000000 0.000000 0.000000 0.000000 0.000000 0.000000 10.000000 
pelvis 0.000000 0.000000 0.000000 0.000000 0.000000 0.000000 10.000000 
null_rope03_connect 0.000000 0.000000 0.000000 0.000000 0.000000 0.000000 10.000000 
null_rope04_connect 0.000000 0.000000 0.000000 0.000000 0.000000 0.000000 10.000000 
Rope3_Seg01 0.000000 0.000000 0.000000 0.000000 0.000000 0.000000 10.000000 
Rope3_Seg02 0.000000 0.000000 0.000000 0.000000 0.000000 0.000000 10.000000 
Rope3_Seg03 0.000000 0.000000 0.000000 0.000000 0.000000 0.000000 10.000000 
Rope3_Seg04 0.000000 0.000000 0.000000 0.000000 0.000000 0.000000 10.000000 
Rope3_Seg05 0.000000 0.000000 0.000000 0.000000 0.000000 0.000000 10.000000 
Rope3_Seg06 0.000000 0.000000 0.000000 0.000000 0.000000 0.000000 10.000000 
Rope3_Seg07 0.000000 0.000000 0.000000 0.000000 0.000000 0.000000 10.000000 
Rope3_Seg08 0.000000 0.000000 0.000000 0.000000 0.000000 0.000000 10.000000 
Rope3_Seg09 0.000000 0.000000 0.000000 0.000000 0.000000 0.000000 10.000000 
R_rear_hand01 0.000000 0.000000 0.000000 0.000000 0.000000 0.000000 10.000000 
R_rear_hand02 0.000000 0.000000 0.000000 0.000000 0.000000 0.000000 10.000000 
R_rear_hand03 0.000000 0.000000 0.000000 0.000000 0.000000 0.000000 10.000000 
Rope4_Seg01 0.000000 0.000000 0.000000 0.000000 0.000000 0.000000 10.000000 
Rope4_Seg02 0.000000 0.000000 0.000000 0.000000 0.000000 0.000000 10.000000 
Rope4_Seg03 0.000000 0.000000 0.000000 0.000000 0.000000 0.000000 10.000000 
Rope4_Seg04 0.000000 0.000000 0.000000 0.000000 0.000000 0.000000 10.000000 
Rope4_Seg05 0.000000 0.000000 0.000000 0.000000 0.000000 0.000000 10.000000 
Rope4_Seg06 0.000000 0.000000 0.000000 0.000000 0.000000 0.000000 10.000000 
Rope4_Seg07 0.000000 0.000000 0.000000 0.000000 0.000000 0.000000 10.000000 
Rope4_Seg08 0.000000 0.000000 0.000000 0.000000 0.000000 0.000000 10.000000 
Rope4_Seg09 0.000000 0.000000 0.000000 0.000000 0.000000 0.000000 10.000000 
L_rear_hand01 0.000000 0.000000 0.000000 0.000000 0.000000 0.000000 10.000000 
L_rear_hand02 0.000000 0.000000 0.000000 0.000000 0.000000 0.000000 10.000000 
L_rear_hand03 0.000000 0.000000 0.000000 0.000000 0.000000 0.000000 10.000000 
#Beginning of Data. Separated by tabs
#Fr	Tx	Ty	Tz	Rx	Ry	Rz	SF
[MASTER]
38 -0.000723 4846.463379 -3276.509277 0.001660 0.001660 0.001660 5850.104004
39 -0.000738 4966.429688 -3284.423096 0.001660 0.001660 0.001660 5954.229980
[root]
38 -7.696387 -197.733765 838.527222 -81.386917 -24.534073 -92.332375 861.560059
39 -5.758471 -152.601929 884.008789 -80.711456 -27.906118 -92.680382 897.101990
[chest]
38 -84.512650 -34.090519 0.000000 -6.273521 0.051535 158.043015 91.129311
39 -84.512650 -34.090519 0.000000 -5.719410 0.183560 159.855438 91.129311
[L_mid_tent01]
38 27.299248 22.177692 -249.918289 -0.173843 36.621185 68.161697 252.381165
39 27.299242 22.177698 -249.918289 -0.173841 36.621185 68.161697 252.381165
[R_mid_tent01]
38 23.228794 24.509907 226.238495 161.842850 -26.101652 83.323860 228.744751
39 23.228794 24.509907 226.238495 161.842850 -26.101652 83.323860 228.744751
[spine01]
38 -0.361383 -0.195265 0.000000 0.001845 0.001451 13.654368 0.410763
39 -0.361383 -0.195265 0.000000 0.001845 0.001451 13.654368 0.410763
[Bip01_Neck]
38 165.484543 71.581718 0.000119 176.643677 -1.657967 43.431911 180.302734
39 165.484543 71.581718 0.000119 176.643677 -1.657967 43.431911 180.302734
[L_humerus]
38 -13.983130 -135.272980 -120.471481 171.996552 12.384989 -91.307320 181.680161
39 -13.983130 -135.272980 -120.471481 171.735809 18.905359 -92.275345 181.680161
[R_humerus]
38 -13.983309 -135.273102 125.287651 -176.986053 -8.285307 -85.977600 184.909012
39 -13.983309 -135.273102 125.287651 -176.916046 -14.810735 -86.333679 184.909012
[weapon_bone]
38 235.964890 -300.705902 0.000000 0.000000 -89.951546 -128.212341 382.234833
39 235.964890 -300.705902 0.000000 0.000000 -89.951546 -128.212341 382.234833
[Bip01_Head]
38 213.389771 185.866974 9.822951 5.200446 6.151311 -43.834991 283.157562
39 213.399414 185.840546 10.163788 5.200446 6.151311 -43.834991 283.159546
[eye_left_bone]
38 -24.626970 125.451866 -64.772606 0.000000 -90.000000 -99.840431 143.318359
39 -24.626970 125.451866 -64.772606 0.000000 -90.000000 -99.840431 143.318359
[eye_right_bone]
38 -24.626970 125.451866 64.327362 0.000000 -89.965736 80.156380 143.117676
39 -24.626970 125.451866 64.327362 0.000000 -89.965736 80.156380 143.117676
[L_forearm]
38 322.776093 0.000000 -0.000119 0.000119 -0.002344 -95.807457 322.776093
39 322.776093 0.000000 -0.000119 0.000119 -0.002344 -95.807457 322.776093
[L_front_hand]
38 241.149185 -0.042021 -3.300071 -178.667953 -1.835447 -27.422342 241.171753
39 241.149185 -0.042021 -3.300071 -178.667953 -1.835447 -27.422350 241.171753
[L_weapon_bone]
38 156.183838 0.000000 0.000000 0.000014 0.000007 0.000001 156.183838
39 156.183838 0.000000 0.000000 0.000014 0.000007 0.000001 156.183838
[L_front_hand01_01]
38 86.095154 20.947098 -0.655860 -0.366594 -0.477154 75.385574 88.609184
39 86.095154 20.947098 -0.655860 -0.366594 -0.477154 75.385574 88.609184
[L_front_hand02_01]
38 86.935165 -11.437475 24.513514 154.399796 -59.883835 -61.369587 91.046425
39 86.935165 -11.437475 24.513514 154.399796 -59.883835 -61.369587 91.046425
[L_front_hand03_01]
38 86.637497 -14.123976 -20.424902 -153.913849 58.118122 -62.702866 90.126129
39 86.637497 -14.123976 -20.424902 -153.913849 58.118130 -62.702866 90.126129
[L_front_hand01_02]
38 71.020905 -0.000179 0.000030 0.000334 -0.002323 -106.373108 71.020905
39 71.020905 -0.000179 0.000030 0.000334 -0.002323 -106.373924 71.020905
[L_front_hand02_02]
38 71.020927 -0.000119 0.000060 0.000334 -0.002323 -106.373108 71.020927
39 71.020927 -0.000119 0.000060 0.000334 -0.002323 -106.373924 71.020927
[L_front_hand03_02]
38 71.020905 -0.000060 0.000060 0.000334 -0.002323 -106.373108 71.020905
39 71.020905 -0.000060 0.000060 0.000334 -0.002323 -106.373924 71.020905
[R_forearm]
38 322.776428 -0.000060 0.000030 0.209504 0.012586 -94.339050 322.776428
39 322.776428 -0.000060 0.000030 0.209504 0.012586 -94.339050 322.776428
[R_front_hand]
38 238.847015 -0.006795 2.210259 -2.635298 -10.645461 -26.312506 238.857239
39 238.847015 -0.006795 2.210259 -2.635298 -10.645461 -26.312506 238.857239
[R_weapon_bone]
38 155.664093 0.002503 -0.000030 0.003487 0.001180 -90.988930 155.664078
39 155.664093 0.002503 -0.000030 0.003487 0.001180 -90.988930 155.664078
[R_front_hand01_01]
38 87.624611 14.231146 22.918642 -154.633514 -59.950634 61.746063 91.683487
39 87.624611 14.231146 22.918642 -154.633514 -59.950634 61.746063 91.683487
[R_front_hand02_01]
38 89.356956 14.367283 -19.491137 154.602661 58.302849 63.744389 92.579636
39 89.356956 14.367283 -19.491137 154.602661 58.302849 63.744389 92.579636
[R_front_hand03_01]
38 87.286232 -22.307278 -0.143439 0.162155 -0.423168 -75.767921 90.091743
39 87.286232 -22.307278 -0.143439 0.162155 -0.423168 -75.767921 90.091743
[R_front_hand01_02]
38 71.020905 0.000060 0.000119 0.002323 -0.000334 106.381714 71.020905
39 71.020905 0.000060 0.000119 0.002323 -0.000334 106.381721 71.020905
[R_front_hand02_02]
38 71.020844 -0.000030 -0.000119 0.002323 -0.000334 106.381714 71.020836
39 71.020844 -0.000030 -0.000119 0.002323 -0.000334 106.381721 71.020836
[R_front_hand03_02]
38 71.020905 0.000000 0.000030 0.002323 -0.000334 106.381714 71.020905
39 71.020905 0.000000 0.000030 0.002323 -0.000334 106.381721 71.020905
[null_rope01_connect]
38 328.732483 0.000000 -0.000238 -125.911316 -59.375443 170.828751 328.732483
39 328.732483 0.000000 -0.000238 -121.832664 -59.590778 170.031830 328.732483
[Rope1_Seg01]
38 0.000000 0.000000 0.000000 138.113525 28.844982 -154.674759 0.000000
39 0.000000 0.000000 0.000000 147.617706 34.170925 -153.691254 0.000000
[Rope1_Seg02]
38 139.999863 -0.000179 0.000000 35.131763 -48.027908 -11.193555 139.999863
39 139.999863 -0.000179 0.000000 27.664839 -44.754936 -3.737899 139.999863
[Rope1_Seg03]
38 139.999924 0.000060 -0.000060 -9.628630 -46.515453 20.933102 139.999924
39 139.999924 0.000060 -0.000060 -9.072187 -45.771805 21.894318 139.999924
[Rope1_Seg04]
38 139.999924 -0.000060 -0.000119 -0.001188 -6.109269 8.041636 139.999924
39 139.999924 -0.000060 -0.000119 -0.264586 -7.110620 8.827281 139.999924
[Rope1_Seg05]
38 139.999832 0.000119 -0.000060 1.370209 -1.343352 4.438459 139.999832
39 139.999832 0.000119 -0.000060 2.102341 -0.819753 5.360646 139.999832
[Rope1_Seg06]
38 139.999954 0.000119 -0.000060 0.182648 -1.634325 2.224980 139.999954
39 139.999954 0.000119 -0.000060 0.453579 -1.607000 2.701125 139.999954
[Rope1_Seg07]
38 139.999985 0.000060 0.000000 0.146917 -1.043806 1.429725 139.999985
39 139.999985 0.000060 0.000000 0.347378 -1.012669 1.739612 139.999985
[Rope1_Seg09]
38 121.602913 0.000119 -0.000089 -89.793175 -1.359789 0.847147 121.602913
39 121.602913 0.000119 -0.000089 -89.793175 -1.359789 0.847147 121.602913
[L_mid_hand01]
38 103.859421 1.038730 8.195221 130.544373 -67.584534 -38.866943 104.187431
39 103.859421 1.038730 8.195221 130.544373 -67.584534 -38.866943 104.187431
[L_mid_hand02]
38 105.572853 -4.139662 -10.864139 -168.923172 43.409309 -73.498886 106.211075
39 105.572853 -4.139662 -10.864139 -168.923172 43.409309 -73.498886 106.211075
[L_mid_hand03]
38 104.641464 17.579376 -3.913581 -6.012627 17.808174 74.893669 106.179977
39 104.641464 17.579376 -3.913581 -6.012627 17.808174 74.893669 106.179977
[null_rope02_connect]
38 328.732849 0.000179 -0.000119 -121.570679 53.901955 20.883053 328.732849
39 328.732849 0.000179 -0.000119 -118.749588 53.715538 20.173981 328.732849
[Rope2_Seg01]
38 0.000045 0.000027 0.000125 15.879285 4.778808 -40.413139 0.000136
39 0.000044 0.000024 0.000129 12.914638 3.817206 -39.428158 0.000138
[Rope2_Seg02]
38 139.999741 -0.000060 -0.000119 -73.608955 14.721737 5.370005 139.999756
39 139.999741 -0.000060 -0.000119 -69.009041 14.895018 5.406756 139.999756
[Rope2_Seg03]
38 140.000107 0.000030 0.000000 -55.294395 -3.682778 80.251244 140.000107
39 140.000107 0.000030 0.000000 -55.367683 1.294217 80.591766 140.000107
[Rope2_Seg04]
38 139.999802 0.000000 -0.000060 -3.924702 -28.276896 21.061144 139.999802
39 139.999802 0.000000 -0.000060 -3.864164 -27.900953 20.886011 139.999802
[Rope2_Seg05]
38 139.999985 -0.000060 0.000119 0.200488 -3.623616 2.162743 139.999985
39 139.999985 -0.000060 0.000119 -0.216399 -4.136094 1.652575 139.999985
[Rope2_Seg06]
38 139.999893 -0.000030 -0.000119 0.239419 -2.460122 1.599348 139.999893
39 139.999893 -0.000030 -0.000119 -0.001570 -2.758474 1.367132 139.999893
[Rope2_Seg07]
38 139.999893 0.000060 -0.000060 0.194434 -1.592805 1.077238 139.999893
39 139.999893 0.000060 -0.000060 0.079215 -1.829107 1.029242 139.999893
[Rope2_Seg09]
38 121.338966 0.000089 -0.000060 33.793236 -1.359788 -0.847141 121.338966
39 121.338966 0.000089 -0.000060 33.793236 -1.359788 -0.847141 121.338966
[R_mid_hand01]
38 104.680779 11.144459 -10.335981 -16.212063 45.237247 70.462852 105.778534
39 104.680779 11.144459 -10.335981 -16.212063 45.237247 70.462852 105.778534
[R_mid_hand02]
38 104.070427 2.443552 8.231699 49.067387 -67.749794 39.286469 104.424065
39 104.070427 2.443552 8.231699 49.067368 -67.749771 39.286453 104.424065
[R_mid_hand03]
38 106.028137 -11.221827 -5.996406 -177.101105 15.551026 -76.585571 106.788818
39 106.028137 -11.221827 -5.996406 -177.101105 15.551026 -76.585571 106.788818
[spine02]
38 129.756927 0.001550 0.000119 -1.023899 -3.926965 6.770993 129.756927
39 129.756927 0.001550 0.000119 -1.023899 -3.926965 6.770993 129.756927
[spine03]
38 78.614380 0.087182 -4.898872 1.040681 4.146420 4.212376 78.766914
39 78.614395 0.087175 -4.898872 1.040681 4.146420 4.212376 78.766937
[pelvis]
38 169.435242 0.051022 0.000000 0.019518 -0.190233 -10.721436 169.435257
39 169.435242 0.051022 0.000000 0.019518 -0.190233 -10.721436 169.435257
[null_rope03_connect]
38 -1.257226 -2.466202 137.391083 8.651737 -82.366219 92.204414 137.418976
39 -1.257226 -2.466202 137.391083 11.092242 -81.923035 93.163208 137.418976
[null_rope04_connect]
38 -1.259640 -2.480268 -137.844437 8.651737 -82.366219 92.204414 137.872513
39 -1.259640 -2.480268 -137.844437 11.092242 -81.923035 93.163208 137.872513
[Rope3_Seg01]
38 -0.000003 -0.000515 -0.000153 -138.326660 -32.750771 -67.358040 0.000538
39 -0.000003 -0.000527 -0.000153 -139.820511 -36.060406 -66.516197 0.000549
[Rope3_Seg02]
38 139.999924 -0.000119 0.000060 -19.851322 6.187480 -37.908783 139.999924
39 139.999924 -0.000119 0.000060 -21.017767 6.803111 -37.866886 139.999924
[Rope3_Seg03]
38 139.999924 -0.000119 0.000119 -27.281212 20.075756 -18.815863 139.999924
39 139.999924 -0.000119 0.000119 -29.113821 21.421213 -19.770201 139.999924
[Rope3_Seg04]
38 139.999924 0.000119 0.000000 -71.778893 15.611878 -56.243042 139.999924
39 139.999924 0.000119 0.000000 -73.475517 18.884129 -58.845955 139.999924
[Rope3_Seg05]
38 139.999924 -0.000238 0.000060 -30.892471 42.150818 -11.405477 139.999924
39 139.999924 -0.000238 0.000060 -24.734217 39.959011 -8.104089 139.999924
[Rope3_Seg06]
38 139.999893 -0.000119 -0.000060 -0.927189 6.487797 2.143773 139.999893
39 139.999893 -0.000119 -0.000060 -0.771353 6.190094 1.827327 139.999893
[Rope3_Seg07]
38 139.999771 0.000060 -0.000119 -0.025096 3.266669 1.143880 139.999771
39 139.999771 0.000060 -0.000119 0.033720 3.162183 0.982220 139.999771
[Rope3_Seg08]
38 139.999985 -0.000060 0.000000 0.288044 1.750990 0.614455 139.999985
39 139.999985 -0.000060 0.000000 0.316378 1.713945 0.538115 139.999985
[Rope3_Seg09]
38 90.185997 -0.000179 -0.000060 89.793228 -1.359877 -0.847183 90.185997
39 90.185997 -0.000179 -0.000060 89.793228 -1.359877 -0.847183 90.185997
[R_rear_hand01]
38 103.366196 -6.073594 -10.757982 -177.714203 24.565960 -73.910950 104.101845
39 103.366196 -6.073594 -10.757982 -177.714203 24.565960 -73.910950 104.101845
[R_rear_hand02]
38 100.509819 12.039542 -7.992327 -12.874829 36.868488 72.167213 101.543350
39 100.509819 12.039542 -7.992327 -12.874829 36.868488 72.167213 101.543350
[R_rear_hand03]
38 101.539970 5.215704 5.435467 71.484581 -71.816628 21.513813 101.819031
39 101.539970 5.215704 5.435467 71.484581 -71.816628 21.513813 101.819031
[Rope4_Seg01]
38 -0.000045 -0.000034 0.000000 59.868549 -29.977076 -121.422638 0.000056
39 -0.000044 -0.000030 0.000000 62.839031 -32.946465 -124.530334 0.000053
[Rope4_Seg02]
38 139.999985 0.000060 0.000119 15.906876 -34.097916 1.987634 139.999985
39 139.999985 0.000060 0.000119 18.312189 -34.323696 2.142499 139.999985
[Rope4_Seg03]
38 139.999924 0.000000 -0.000238 42.236065 -25.170488 22.832565 139.999924
39 139.999924 0.000000 -0.000238 45.024216 -24.342543 23.507397 139.999924
[Rope4_Seg04]
38 139.999985 0.000000 0.000119 52.935822 -39.420986 45.234905 139.999985
39 139.999985 0.000000 0.000119 49.159546 -37.353134 51.304756 139.999985
[Rope4_Seg05]
38 139.999802 -0.000060 -0.000119 16.569012 9.193026 37.264591 139.999802
39 139.999802 -0.000060 -0.000119 13.185159 10.485735 34.450935 139.999802
[Rope4_Seg06]
38 139.999924 0.000000 0.000060 0.826283 3.503346 5.417428 139.999924
39 139.999924 0.000000 0.000060 0.575094 3.278398 5.150680 139.999924
[Rope4_Seg07]
38 139.999802 0.000000 0.000000 0.338879 1.858571 2.792232 139.999802
39 139.999802 0.000000 0.000000 0.225658 1.742743 2.691161 139.999802
[Rope4_Seg08]
38 139.999924 0.000000 0.000119 -1.389735 1.014268 1.512844 139.999924
39 139.999924 0.000000 0.000119 -1.445326 0.955015 1.463634 139.999924
[Rope4_Seg09]
38 90.185791 0.000060 0.000060 -135.617828 2.228885 0.850567 90.185791
39 90.185791 0.000060 0.000060 -135.617828 2.228885 0.850567 90.185791
[L_rear_hand01]
38 101.696655 -8.392275 -7.654577 -12.874829 -36.868488 107.832764 102.329041
39 101.696655 -8.392275 -7.654577 -12.874829 -36.868488 107.832764 102.329041
[L_rear_hand02]
38 102.726799 -1.568258 5.773216 71.484581 71.816628 158.486160 102.900848
39 102.726799 -1.568258 5.773216 71.484581 71.816628 158.486160 102.900848
[L_rear_hand03]
38 104.552910 9.721220 -10.420293 -177.714203 -24.565960 -106.089035 105.519653
39 104.552910 9.721220 -10.420293 -177.714203 -24.565960 -106.089035 105.519653
